<svg width="60" height="40" viewBox="0 0 60 40" fill="none" xmlns="http://www.w3.org/2000/svg">
<path d="M0 6C0 2.68629 2.68629 0 6 0H54C57.3137 0 60 2.68629 60 6V34C60 37.3137 57.3137 40 54 40H6C2.68629 40 0 37.3137 0 34V6Z" fill="#F27923"/>
<path d="M36.5678 39C47.9657 39 57.2 30.4895 57.2 20C57.2 9.50372 47.9584 1 36.5678 1H6.19995C3.43853 1 1.19995 3.23857 1.19995 6V33.9996C1.19995 36.761 3.43849 38.9995 6.19989 38.9996L36.5678 39Z" fill="white"/>
<path d="M3.69995 16.3177V24.3399H5.98739C7.19915 24.3399 8.08043 24.0548 8.85155 23.4133C9.76523 22.6551 10.3096 21.5147 10.3096 20.3353C10.3096 17.9701 8.54051 16.3177 6.00035 16.3177H3.69995ZM7.82123 22.3441C7.32875 22.7847 6.69371 22.9791 5.68283 22.9791H5.26163V17.672H5.68283C6.69371 17.672 7.30931 17.8535 7.82123 18.32C8.36555 18.7995 8.68955 19.5512 8.68955 20.3159C8.68955 21.0805 8.36555 21.8581 7.82123 22.3376V22.3441Z" fill="#261F20"/>
<path d="M12.584 16.3177H11.0223V24.3399H12.584V16.3177Z" fill="#261F20"/>
<path d="M16.4137 19.3957C15.4741 19.0457 15.202 18.8189 15.202 18.3848C15.202 17.8793 15.6945 17.497 16.3684 17.497C16.8349 17.497 17.2237 17.6914 17.632 18.145L18.4484 17.0758C17.7745 16.4861 16.971 16.1881 16.0897 16.1881C14.6706 16.1881 13.5885 17.173 13.5885 18.4885C13.5885 19.5965 14.0939 20.1603 15.5649 20.6852C16.174 20.899 16.4915 21.0481 16.647 21.1388C16.9581 21.3397 17.1136 21.6313 17.1136 21.9682C17.1136 22.6162 16.5952 23.1022 15.8953 23.1022C15.1501 23.1022 14.5475 22.7264 14.1846 22.033L13.1737 23.005C13.893 24.0613 14.7613 24.5343 15.9536 24.5343C17.5801 24.5343 18.7206 23.4521 18.7206 21.9034C18.7206 20.6269 18.1957 20.0501 16.4137 19.4021V19.3957Z" fill="#261F20"/>
<path d="M19.2131 20.3353C19.2131 22.694 21.0664 24.5213 23.4445 24.5213C24.1184 24.5213 24.6952 24.3917 25.408 24.0548V22.2145C24.7794 22.843 24.2286 23.0957 23.5158 23.0957C21.9412 23.0957 20.8201 21.9553 20.8201 20.3288C20.8201 18.7865 21.9736 17.5748 23.4445 17.5748C24.1897 17.5748 24.7535 17.8405 25.408 18.4755V16.6352C24.7211 16.2853 24.1573 16.1427 23.4834 16.1427C21.1117 16.1427 19.2131 18.0089 19.2131 20.3417V20.3353Z" fill="#261F20"/>
<path d="M37.8171 21.7026L35.6722 16.3177H33.968L37.37 24.5408H38.2124L41.6792 16.3177H39.9814L37.8171 21.7026Z" fill="#261F20"/>
<path d="M42.3855 24.3399H46.8243V22.9791H43.9472V20.8148H46.7142V19.454H43.9472V17.6785H46.8243V16.3177H42.3855V24.3399Z" fill="#261F20"/>
<path d="M53.0192 18.6829C53.0192 17.1795 51.9824 16.3177 50.181 16.3177H47.8611V24.3399H49.4228V21.1194H49.6302L51.7945 24.3399H53.7191L51.1919 20.9574C52.3712 20.7176 53.0192 19.9141 53.0192 18.6829ZM49.8764 20.0113H49.4163V17.5813H49.8959C50.8679 17.5813 51.3992 17.9895 51.3992 18.7736C51.3992 19.5577 50.8679 20.0113 49.8699 20.0113H49.8764Z" fill="#261F20"/>
<path d="M54.2633 16.7388C54.2633 16.5963 54.1661 16.5185 53.9977 16.5185H53.7709V17.2248H53.9393V16.9527L54.1402 17.2248H54.3476L54.1143 16.9332C54.2115 16.9073 54.2698 16.836 54.2698 16.7388H54.2633ZM53.9393 16.836V16.6481H53.9717C54.056 16.6481 54.1013 16.6805 54.1013 16.7388C54.1013 16.7972 54.056 16.836 53.9717 16.836H53.9393Z" fill="#261F20"/>
<path d="M54.0301 16.2529C53.6866 16.2529 53.4145 16.5251 53.4145 16.8685C53.4145 17.212 53.6931 17.4841 54.0301 17.4841C54.367 17.4841 54.6392 17.2055 54.6392 16.8685C54.6392 16.5316 54.367 16.2529 54.0301 16.2529ZM54.0301 17.3804C53.7579 17.3804 53.5376 17.1536 53.5376 16.875C53.5376 16.5964 53.7579 16.3696 54.0301 16.3696C54.3022 16.3696 54.5161 16.6028 54.5161 16.875C54.5161 17.1472 54.2957 17.3804 54.0301 17.3804Z" fill="#261F20"/>
<path d="M30.1838 16.0065C32.5749 16.0065 34.5189 17.944 34.5189 20.3352C34.5189 22.7263 32.5749 24.6703 30.1838 24.6703C27.7926 24.6703 25.8486 22.7327 25.8486 20.3352C25.8486 17.944 27.7862 16 30.1838 16V16.0065Z" fill="#F27923"/>
</svg>
